<svg width="346" height="45" viewBox="0 0 346 45" fill="none" xmlns="http://www.w3.org/2000/svg">
<path d="M147.189 1.78715C147.673 0.916802 148.367 0.481628 149.271 0.481628H158.132C158.487 0.481628 158.794 0.610569 159.052 0.86845C159.31 1.12633 159.439 1.43256 159.439 1.78715V33.0229C159.439 33.3775 159.31 33.6837 159.052 33.9416C158.794 34.1995 158.487 34.3284 158.132 34.3284H149.368C149.013 34.3284 148.706 34.1995 148.448 33.9416C148.19 33.6837 148.061 33.3775 148.061 33.0229V18.0336L144.526 24.9964C144.429 25.222 144.203 25.4799 143.848 25.77C143.493 26.0601 143.041 26.2052 142.492 26.2052H139.2C138.651 26.2052 138.199 26.0601 137.844 25.77C137.489 25.4799 137.263 25.222 137.166 24.9964L133.631 18.0336V33.0229C133.631 33.3775 133.502 33.6837 133.244 33.9416C132.986 34.1995 132.679 34.3284 132.324 34.3284H123.56C123.205 34.3284 122.898 34.1995 122.64 33.9416C122.382 33.6837 122.253 33.3775 122.253 33.0229V1.78715C122.253 1.43256 122.382 1.12633 122.64 0.86845C122.898 0.610569 123.205 0.481628 123.56 0.481628H132.421C133.325 0.481628 134.019 0.916802 134.503 1.78715L140.846 13.3918L147.189 1.78715Z" fill="#505BFF"/>
<path d="M115.493 24.4162C115.848 24.4162 116.155 24.5451 116.413 24.803C116.671 25.0609 116.8 25.3671 116.8 25.7217V33.0229C116.8 33.3775 116.671 33.6837 116.413 33.9416C116.155 34.1995 115.848 34.3284 115.493 34.3284H87.2154C86.8603 34.3284 86.5537 34.1995 86.2954 33.9416C86.0372 33.6837 85.9081 33.3775 85.9081 33.0229V1.78715C85.9081 1.43256 86.0372 1.12633 86.2954 0.86845C86.5537 0.610569 86.8603 0.481628 87.2154 0.481628H97.6742C98.0293 0.481628 98.3359 0.610569 98.5942 0.86845C98.8524 1.12633 98.9815 1.43256 98.9815 1.78715V24.4162H115.493Z" fill="#505BFF"/>
<path d="M74.2577 24.8997C74.6128 24.8997 74.9195 25.0286 75.1777 25.2865C75.4359 25.5444 75.5651 25.8506 75.5651 26.2052V33.0229C75.5651 33.3775 75.4359 33.6837 75.1777 33.9416C74.9195 34.1995 74.6128 34.3284 74.2577 34.3284H43.6561C43.3011 34.3284 42.9944 34.1995 42.7361 33.9416C42.4779 33.6837 42.3488 33.3775 42.3488 33.0229V1.78715C42.3488 1.43256 42.4779 1.12633 42.7361 0.86845C42.9944 0.610569 43.3011 0.481628 43.6561 0.481628H73.7735C74.1286 0.481628 74.4353 0.610569 74.6935 0.86845C74.9517 1.12633 75.0809 1.43256 75.0809 1.78715V8.60486C75.0809 8.95945 74.9517 9.26568 74.6935 9.52356C74.4353 9.78144 74.1286 9.91038 73.7735 9.91038H54.938V12.9566H71.1104C71.4655 12.9566 71.7721 13.0855 72.0304 13.3434C72.2886 13.6013 72.4177 13.9075 72.4177 14.2621V20.5479C72.4177 20.9025 72.2886 21.2088 72.0304 21.4666C71.7721 21.7245 71.4655 21.8535 71.1104 21.8535H54.938V24.8997H74.2577Z" fill="#505BFF"/>
<path d="M33.5552 0.481628C33.9103 0.481628 34.217 0.610569 34.4752 0.86845C34.7334 1.12633 34.8626 1.43256 34.8626 1.78715V33.0229C34.8626 33.3775 34.7334 33.6837 34.4752 33.9416C34.217 34.1995 33.9103 34.3284 33.5552 34.3284H23.5806C23.2256 34.3284 22.9189 34.1995 22.6607 33.9416C22.4024 33.6837 22.2733 33.3775 22.2733 33.0229V22.7238H12.5893V33.0229C12.5893 33.3775 12.4601 33.6837 12.2019 33.9416C11.9437 34.1995 11.637 34.3284 11.2819 34.3284H1.30735C0.952264 34.3284 0.645603 34.2156 0.387362 33.99C0.12912 33.7321 0 33.4097 0 33.0229V1.78715C0 1.43256 0.12912 1.12633 0.387362 0.86845C0.645603 0.610569 0.952264 0.481628 1.30735 0.481628H11.2819C11.637 0.481628 11.9437 0.610569 12.2019 0.86845C12.4601 1.12633 12.5893 1.43256 12.5893 1.78715V11.6994H22.2733V1.78715C22.2733 1.43256 22.4024 1.12633 22.6607 0.86845C22.9189 0.610569 23.2256 0.481628 23.5806 0.481628H33.5552Z" fill="#505BFF"/>
<path d="M346 25.947C346 26.4507 345.945 26.9307 345.834 27.3872C345.724 27.8279 345.598 28.2686 345.456 28.7093C345.314 29.1343 345.165 29.575 345.007 30.0315C344.865 30.4722 344.755 30.9287 344.676 31.4008C344.534 32.1878 344.25 32.841 343.825 33.3604C343.399 33.8799 342.887 34.2891 342.288 34.5881C341.689 34.9029 341.019 35.1312 340.278 35.2728C339.553 35.4302 338.805 35.5483 338.032 35.627C337.26 35.7057 336.496 35.7608 335.739 35.7922C334.998 35.8237 334.313 35.8788 333.682 35.9575C333.446 35.7844 333.249 35.5955 333.091 35.3909C332.933 35.1863 332.784 34.9895 332.642 34.8006C332.5 34.6275 332.342 34.478 332.169 34.3521C331.996 34.2419 331.767 34.1868 331.483 34.1868C331.389 34.1868 331.31 34.0609 331.247 33.809C331.2 33.5415 331.152 33.2503 331.105 32.9355C331.058 32.6049 331.003 32.3138 330.94 32.0619C330.892 31.7943 330.821 31.6606 330.727 31.6606C330.364 31.6606 330.073 31.5819 329.852 31.4245C329.647 31.2671 329.482 31.0703 329.356 30.8342C329.245 30.5824 329.166 30.3069 329.119 30.0079C329.088 29.7088 329.072 29.4176 329.072 29.1343C329.072 28.914 329.025 28.7093 328.93 28.5205C328.835 28.3316 328.733 28.1506 328.623 27.9774C328.512 27.7886 328.41 27.5997 328.315 27.4108C328.221 27.2219 328.173 27.0252 328.173 26.8206C328.173 26.5845 328.181 26.2933 328.197 25.947C328.229 25.585 328.252 25.2151 328.268 24.8374C328.3 24.4596 328.323 24.0897 328.339 23.7277C328.37 23.3657 328.386 23.0666 328.386 22.8305C328.386 22.5472 328.418 22.3111 328.481 22.1223C328.56 21.9334 328.646 21.7681 328.741 21.6264C328.835 21.4848 328.914 21.3589 328.977 21.2487C329.056 21.1385 329.095 21.0126 329.095 20.8709C329.095 20.6821 329.048 20.5247 328.954 20.3987C328.875 20.2728 328.835 20.1469 328.835 20.021C328.835 19.8479 328.891 19.6826 329.001 19.5252C329.111 19.3521 329.19 19.1789 329.237 19.0058C329.411 18.3132 329.497 17.6285 329.497 16.9517C329.497 16.8101 329.49 16.6763 329.474 16.5504C329.474 16.4087 329.466 16.2749 329.45 16.149C329.088 15.85 328.686 15.6611 328.244 15.5824C327.803 15.4879 327.362 15.425 326.92 15.3935C326.479 15.3463 326.053 15.2912 325.644 15.2282C325.234 15.1653 324.887 15 324.603 14.7324C324.367 14.5121 324.154 14.2681 323.965 14.0005C323.776 13.7172 323.524 13.5283 323.208 13.4339C322.988 13.3552 322.799 13.2529 322.641 13.127C322.499 12.9853 322.428 12.7886 322.428 12.5367C322.428 12.159 322.539 11.8757 322.759 11.6868C322.996 11.4822 323.271 11.3248 323.587 11.2146C323.902 11.0887 324.225 10.9864 324.556 10.9077C324.903 10.8132 325.194 10.6794 325.431 10.5063C325.667 10.3332 325.951 10.2466 326.282 10.2466C326.424 10.2466 326.558 10.2545 326.684 10.2702C326.826 10.2702 326.968 10.2702 327.109 10.2702C327.504 10.2702 327.827 10.2072 328.079 10.0813C328.347 9.93967 328.552 9.75866 328.694 9.53831C328.851 9.30221 328.954 9.03463 329.001 8.73558C329.064 8.43652 329.095 8.11386 329.095 7.76758C329.095 7.26391 329.064 6.77598 329.001 6.30378C328.938 5.83159 328.906 5.34366 328.906 4.83998C328.906 4.25761 328.985 3.72246 329.143 3.23453C329.3 2.7466 329.6 2.29801 330.041 1.88878C330.136 1.81008 330.238 1.70777 330.349 1.58185C330.459 1.45593 330.577 1.33789 330.703 1.22771C330.829 1.10179 330.955 0.999481 331.081 0.920783C331.223 0.842084 331.365 0.802734 331.507 0.802734C331.602 0.802734 331.68 0.826344 331.743 0.873563C331.822 0.905043 331.901 0.952262 331.98 1.01522C332.327 1.3615 332.547 1.6212 332.642 1.79434C332.752 1.95174 332.807 2.14061 332.807 2.36097C332.807 2.48689 332.799 2.62855 332.784 2.78595C332.784 2.9276 332.784 3.11648 332.784 3.35258C332.784 3.85625 332.847 4.35205 332.973 4.83998C333.099 5.32792 333.162 5.74502 333.162 6.0913C333.162 6.39035 333.099 6.68154 332.973 6.96485C332.863 7.23243 332.807 7.51575 332.807 7.8148C332.807 8.03516 332.855 8.23978 332.949 8.42865C333.06 8.60179 333.178 8.77493 333.304 8.94806C333.446 9.1212 333.572 9.30221 333.682 9.49109C333.792 9.66422 333.848 9.86884 333.848 10.1049C334.005 10.2151 334.36 10.3174 334.912 10.4119C335.463 10.4906 336.078 10.5614 336.756 10.6243C337.433 10.6716 338.119 10.7109 338.813 10.7424C339.506 10.7739 340.081 10.7896 340.539 10.7896C340.948 10.7896 341.264 10.8211 341.484 10.8841C341.705 10.947 341.886 11.0178 342.028 11.0965C342.186 11.1595 342.327 11.2303 342.454 11.309C342.58 11.3877 342.745 11.4349 342.95 11.4507C343.202 11.4822 343.415 11.553 343.588 11.6632C343.778 11.7576 343.872 11.9544 343.872 12.2534C343.872 12.6312 343.77 12.9302 343.565 13.1506C343.376 13.3709 343.131 13.5362 342.832 13.6464C342.548 13.7566 342.241 13.8274 341.91 13.8589C341.579 13.8746 341.271 13.8825 340.988 13.8825C340.531 13.8825 340.074 13.8667 339.616 13.8353C339.159 13.8038 338.702 13.788 338.245 13.788C337.489 13.788 336.803 13.8589 336.188 14.0005C335.574 14.1422 335.038 14.3783 334.581 14.7088C334.139 15.0394 333.792 15.4801 333.54 16.031C333.304 16.5661 333.186 17.2429 333.186 18.0614C333.186 18.8641 333.233 19.6511 333.328 20.4224C333.438 21.1936 333.493 21.9806 333.493 22.7833C333.493 23.5388 333.501 24.1448 333.517 24.6013C333.548 25.0577 333.643 25.4433 333.8 25.7581C334.005 26.2146 334.171 26.734 334.297 27.3164C334.423 27.8987 334.581 28.4496 334.77 28.9691C334.975 29.4885 335.25 29.9292 335.597 30.2912C335.96 30.6375 336.488 30.8106 337.181 30.8106C337.418 30.8106 337.733 30.7791 338.127 30.7162C338.521 30.6532 338.915 30.5588 339.309 30.4328C339.703 30.2912 340.042 30.1181 340.326 29.9134C340.609 29.6931 340.751 29.4255 340.751 29.1107C340.751 28.8431 340.673 28.5756 340.515 28.308C340.357 28.0247 340.278 27.7256 340.278 27.4108C340.278 27.1905 340.326 27.0016 340.42 26.8442C340.531 26.671 340.665 26.5215 340.822 26.3956C340.996 26.2539 341.169 26.1359 341.342 26.0415C341.532 25.9313 341.713 25.8368 341.886 25.7581C342.17 25.3961 342.509 25.0971 342.903 24.861C343.313 24.6091 343.746 24.4832 344.203 24.4832C344.518 24.4832 344.818 24.5383 345.102 24.6485C345.401 24.7587 345.677 24.9003 345.929 25.0735C345.976 25.3568 346 25.648 346 25.947Z" fill="white"/>
<path d="M320.324 29.4649C320.324 29.6223 320.261 29.7324 320.135 29.7954C320.025 29.8584 319.914 29.9213 319.804 29.9843C319.631 30.0787 319.489 30.1889 319.378 30.3148C319.268 30.4407 319.166 30.5824 319.071 30.7398C318.976 30.8814 318.89 31.0388 318.811 31.212C318.732 31.3694 318.645 31.5189 318.551 31.6606C318.33 31.9911 318.023 32.2193 317.629 32.3452C317.25 32.4712 316.872 32.5892 316.494 32.6994C316.116 32.8096 315.769 32.967 315.454 33.1716C315.154 33.3605 314.965 33.691 314.886 34.1632H314.768C314.405 34.1632 314.067 34.2261 313.751 34.3521C313.452 34.478 313.145 34.6118 312.829 34.7534C312.53 34.9108 312.222 35.0525 311.907 35.1784C311.592 35.3043 311.261 35.3673 310.914 35.3673C310.725 35.3673 310.544 35.3358 310.37 35.2728C310.213 35.2099 310.047 35.139 309.874 35.0603C309.716 34.9817 309.551 34.9108 309.377 34.8479C309.22 34.7849 309.046 34.7534 308.857 34.7534C308.605 34.7534 308.361 34.7692 308.124 34.8006C307.888 34.8321 307.652 34.8479 307.415 34.8479C307.242 34.8479 307.037 34.8243 306.8 34.777C306.564 34.7456 306.343 34.6826 306.138 34.5882C305.934 34.4937 305.76 34.3757 305.618 34.234C305.476 34.0766 305.406 33.8877 305.406 33.6674C305.406 33.5887 305.413 33.5257 305.429 33.4785C305.35 33.5572 305.264 33.6123 305.169 33.6438C305.075 33.6595 304.98 33.6674 304.885 33.6674C304.413 33.6674 303.971 33.5651 303.561 33.3605C303.167 33.1401 302.789 32.8804 302.427 32.5813C302.08 32.2665 301.749 31.936 301.434 31.5897C301.134 31.2277 300.835 30.8972 300.535 30.5981C300.173 30.2361 299.889 29.819 299.684 29.3468C299.495 28.8746 299.266 28.4182 298.998 27.9775C298.431 27.0645 298.084 26.1438 297.958 25.2151C297.832 24.2707 297.769 23.287 297.769 22.2639C297.769 22.075 297.777 21.8626 297.793 21.6265C297.824 21.3746 297.879 21.1936 297.958 21.0834C298.021 21.0047 298.1 20.9496 298.194 20.9182C298.289 20.8709 298.376 20.8316 298.455 20.8001C298.549 20.7529 298.628 20.7057 298.691 20.6585C298.754 20.6112 298.786 20.5404 298.786 20.446C298.786 20.2256 298.73 20.0289 298.62 19.8557C298.51 19.6669 298.455 19.4622 298.455 19.2419C298.455 19.0845 298.486 18.9507 298.549 18.8405C298.628 18.7303 298.707 18.6123 298.786 18.4864C298.912 18.2818 299.022 17.9434 299.117 17.4712C299.227 16.9832 299.337 16.5032 299.448 16.031C299.574 15.543 299.723 15.1181 299.897 14.756C300.086 14.3783 300.33 14.1894 300.63 14.1894C300.85 14.1894 301.055 14.2209 301.244 14.2839C301.434 14.3468 301.638 14.3783 301.859 14.3783C302.048 14.3783 302.23 14.3547 302.403 14.3075L302.427 14.1186C302.427 13.9297 302.363 13.8117 302.237 13.7644C302.127 13.7172 302.001 13.6857 301.859 13.67C301.733 13.6543 301.607 13.6385 301.481 13.6228C301.37 13.5913 301.315 13.5047 301.315 13.3631C301.315 13.2686 301.355 13.1899 301.434 13.127C301.528 13.0483 301.631 12.9853 301.741 12.9381C301.867 12.8751 301.993 12.8201 302.119 12.7728C302.245 12.7256 302.34 12.6784 302.403 12.6312C302.561 12.5053 302.671 12.3872 302.734 12.277C302.797 12.1511 302.852 12.0331 302.899 11.9229C302.962 11.8127 303.049 11.7183 303.159 11.6396C303.27 11.5609 303.451 11.49 303.703 11.4271C303.924 11.3799 304.145 11.3563 304.365 11.3563C304.586 11.3405 304.807 11.3326 305.027 11.3326C305.248 11.3169 305.469 11.3012 305.689 11.2854C305.91 11.2697 306.131 11.2303 306.351 11.1674L306.115 10.9313C306.194 10.7896 306.304 10.6794 306.446 10.6007C306.588 10.5063 306.745 10.4355 306.919 10.3883C307.108 10.341 307.289 10.3174 307.462 10.3174C307.652 10.3017 307.817 10.2938 307.959 10.2938C308.511 10.2938 309.046 10.3647 309.567 10.5063C310.087 10.648 310.607 10.7188 311.127 10.7188C311.348 10.7188 311.56 10.6952 311.765 10.648C311.986 10.585 312.207 10.5535 312.427 10.5535C312.758 10.5535 313.066 10.6401 313.349 10.8132C313.649 10.9706 313.933 11.1202 314.201 11.2618L314.295 11.2854C314.437 11.2854 314.555 11.2303 314.65 11.1202C314.744 11.01 314.839 10.9549 314.934 10.9549C315.012 10.9549 315.075 10.9942 315.123 11.0729C315.17 11.1359 315.217 11.1989 315.265 11.2618C315.391 11.4035 315.556 11.4979 315.761 11.5451C315.982 11.5766 316.131 11.6553 316.21 11.7812C316.321 11.9701 316.447 12.1039 316.588 12.1826C316.73 12.2456 316.872 12.2928 317.014 12.3243C317.156 12.3557 317.306 12.3872 317.463 12.4187C317.621 12.4502 317.771 12.521 317.912 12.6312V13.2922C318.228 13.7015 318.519 14.0163 318.787 14.2366C319.071 14.4413 319.315 14.6616 319.52 14.8977C319.741 15.1181 319.906 15.4014 320.017 15.7477C320.143 16.0782 320.206 16.5661 320.206 17.2115C320.206 17.904 320.143 18.51 320.017 19.0294C319.906 19.5488 319.701 19.9895 319.402 20.3515C319.118 20.6978 318.732 20.9654 318.243 21.1543C317.755 21.3274 317.148 21.4061 316.423 21.3904L314.886 21.3668C314.76 21.1621 314.579 20.8788 314.342 20.5168C314.106 20.139 313.87 19.7534 313.633 19.3599C313.397 18.9507 313.184 18.5729 312.995 18.2267C312.821 17.8647 312.735 17.5892 312.735 17.4003C312.735 17.1642 312.751 16.9281 312.782 16.692C312.829 16.4559 312.853 16.2198 312.853 15.9837C312.743 15.6847 312.593 15.4407 312.404 15.2519C312.23 15.063 312.025 14.9213 311.789 14.8269C311.553 14.7167 311.293 14.6459 311.009 14.6144C310.741 14.5829 310.465 14.5672 310.181 14.5672C309.772 14.5672 309.362 14.5986 308.952 14.6616C308.558 14.7246 308.172 14.8269 307.793 14.9685C307.793 14.8269 307.754 14.701 307.675 14.5908C307.612 14.4649 307.494 14.4019 307.321 14.4019C307.1 14.4019 306.832 14.4885 306.517 14.6616C306.201 14.819 305.878 15.0158 305.547 15.2519C305.232 15.4879 304.941 15.7398 304.673 16.0074C304.405 16.2592 304.208 16.4796 304.082 16.6684C303.971 16.8258 303.821 17.0698 303.632 17.4003C303.443 17.7309 303.238 18.0614 303.018 18.3919C302.813 18.7225 302.592 19.0215 302.356 19.2891C302.135 19.5409 301.93 19.6747 301.741 19.6905C301.788 19.9108 301.851 20.2099 301.93 20.5876C302.009 20.9496 302.08 21.3353 302.143 21.7445C302.206 22.1537 302.261 22.5472 302.308 22.925C302.356 23.287 302.379 23.5703 302.379 23.7749C302.379 24.1369 302.442 24.4754 302.568 24.7902C302.694 25.1049 302.758 25.4434 302.758 25.8054C302.758 26.0729 302.718 26.3405 302.639 26.6081C302.576 26.8757 302.545 27.1432 302.545 27.4108C302.545 27.6469 302.576 27.8043 302.639 27.883C302.718 27.9617 302.868 28.0325 303.089 28.0955C303.341 28.1742 303.514 28.308 303.609 28.4969C303.719 28.6857 303.806 28.8825 303.869 29.0871C303.948 29.276 304.034 29.4413 304.129 29.5829C304.239 29.7246 304.428 29.7954 304.696 29.7954H304.814L305.098 29.7718C305.287 30.0236 305.398 30.3069 305.429 30.6217C305.476 30.9365 305.595 31.2198 305.784 31.4717C305.894 31.4559 305.965 31.4087 305.997 31.33C306.028 31.2513 306.06 31.1726 306.091 31.0939C306.123 31.0152 306.17 30.9444 306.233 30.8814C306.312 30.8185 306.446 30.787 306.635 30.787C306.808 30.787 306.95 30.8342 307.06 30.9287C307.171 31.0231 307.273 31.1333 307.368 31.2592C307.462 31.3694 307.557 31.4717 307.652 31.5661C307.762 31.6606 307.896 31.7078 308.053 31.7078C308.321 31.7078 308.613 31.6606 308.928 31.5661C309.259 31.4559 309.59 31.3379 309.921 31.212C310.268 31.0703 310.607 30.9287 310.938 30.787C311.269 30.6453 311.568 30.5352 311.836 30.4565C312.483 30.2676 313.089 29.9921 313.657 29.6301C314.224 29.2681 314.681 28.7881 315.028 28.1899C315.201 27.8751 315.406 27.584 315.643 27.3164C315.895 27.0488 316.092 26.7498 316.234 26.4192C316.391 26.4192 316.549 26.4113 316.707 26.3956C316.864 26.3799 317.03 26.372 317.203 26.372C317.25 26.372 317.321 26.372 317.416 26.372C317.526 26.372 317.637 26.3799 317.747 26.3956C317.857 26.4113 317.952 26.435 318.031 26.4664C318.125 26.4979 318.173 26.5373 318.173 26.5845C318.173 26.7261 318.117 26.8442 318.007 26.9386C317.912 27.0173 317.802 27.096 317.676 27.1747C317.566 27.2377 317.463 27.3164 317.369 27.4108C317.274 27.4895 317.227 27.6076 317.227 27.765L317.487 27.7414C317.676 27.7414 317.928 27.7886 318.243 27.883C318.559 27.9775 318.866 28.1112 319.166 28.2844C319.481 28.4418 319.749 28.6228 319.969 28.8274C320.206 29.032 320.324 29.2445 320.324 29.4649ZM318.622 30.787C318.622 30.6926 318.582 30.6139 318.504 30.5509C318.441 30.4722 318.362 30.4329 318.267 30.4329C318.157 30.4329 318.062 30.5037 317.983 30.6453C317.905 30.787 317.865 30.8972 317.865 30.9759C317.865 31.0703 317.92 31.1175 318.031 31.1175C318.141 31.1018 318.212 31.0939 318.243 31.0939C318.322 31.0939 318.401 31.0782 318.48 31.0467C318.574 30.9995 318.622 30.9129 318.622 30.787Z" fill="white"/>
<path d="M293.773 29.394C293.773 29.819 293.702 30.181 293.561 30.4801C293.434 30.7791 293.261 31.0467 293.04 31.2828C292.835 31.5189 292.591 31.7392 292.307 31.9439C292.04 32.1485 291.764 32.3688 291.48 32.6049C291.259 32.7938 291.062 32.9355 290.889 33.0299C290.716 33.1243 290.542 33.203 290.369 33.266C290.211 33.329 290.038 33.3919 289.849 33.4549C289.675 33.5178 289.47 33.6044 289.234 33.7146C288.919 33.872 288.651 34.0215 288.43 34.1632C288.225 34.2891 288.012 34.4071 287.792 34.5173C287.587 34.6275 287.358 34.7141 287.106 34.777C286.854 34.8557 286.539 34.9187 286.16 34.9659C285.53 35.0446 284.892 35.139 284.245 35.2492C283.615 35.3594 282.984 35.4145 282.354 35.4145C282.228 35.4145 282.094 35.383 281.952 35.32C281.826 35.2728 281.676 35.2177 281.503 35.1548C281.329 35.1075 281.132 35.0525 280.912 34.9895C280.707 34.9423 280.455 34.9187 280.155 34.9187C279.84 34.9187 279.588 34.8715 279.399 34.777C279.209 34.6826 279.036 34.5724 278.878 34.4465C278.737 34.3206 278.587 34.1868 278.429 34.0451C278.272 33.8877 278.067 33.7539 277.814 33.6437C276.869 33.2188 276.065 32.7072 275.403 32.1091C274.741 31.511 274.174 30.8421 273.701 30.1023C273.228 29.3625 272.834 28.5598 272.519 27.6941C272.203 26.8284 271.935 25.9234 271.715 24.979C271.541 24.3179 271.455 23.6569 271.455 22.9958C271.455 22.1301 271.66 21.3274 272.069 20.5876C271.912 20.1469 271.833 19.7219 271.833 19.3127C271.833 19.0136 271.92 18.5729 272.093 17.9905C272.266 17.3924 272.487 16.7943 272.755 16.1962C273.039 15.5981 273.338 15.063 273.653 14.5908C273.984 14.1028 274.292 13.8038 274.575 13.6936C274.796 13.6149 274.946 13.5519 275.025 13.5047C275.119 13.4418 275.167 13.2844 275.167 13.0325C275.167 12.8436 275.237 12.6862 275.379 12.5603C275.537 12.4344 275.718 12.3321 275.923 12.2534C276.144 12.1747 276.357 12.1039 276.561 12.0409C276.782 11.978 276.963 11.915 277.105 11.852C277.688 11.5687 278.24 11.3326 278.76 11.1437C279.296 10.9391 279.824 10.7739 280.344 10.6479C280.88 10.5063 281.432 10.404 281.999 10.341C282.567 10.2781 283.174 10.2466 283.82 10.2466C284.166 10.2466 284.505 10.2938 284.836 10.3882C285.167 10.4827 285.483 10.6086 285.782 10.766C286.097 10.9077 286.405 11.0729 286.704 11.2618C287.004 11.4349 287.295 11.6081 287.579 11.7812H287.555C287.792 11.8127 288.012 11.8835 288.217 11.9937C288.438 12.0881 288.666 12.1511 288.903 12.1826C289.124 12.4501 289.407 12.7099 289.754 12.9617C290.117 13.1978 290.463 13.4496 290.794 13.7172C291.141 13.9848 291.433 14.276 291.669 14.5908C291.921 14.8898 292.047 15.2361 292.047 15.6296C292.047 15.6925 292.04 15.7555 292.024 15.8185C292.024 15.8814 292.016 15.9522 292 16.0309L292.095 15.9129C292.158 15.9601 292.213 16.0388 292.26 16.149C292.323 16.2592 292.378 16.3851 292.426 16.5267C292.473 16.6527 292.512 16.7865 292.544 16.9281C292.575 17.054 292.599 17.1563 292.615 17.235C292.741 17.4397 292.906 17.6049 293.111 17.7308C293.332 17.8568 293.505 18.0299 293.631 18.2503C293.474 18.4077 293.395 18.6123 293.395 18.8641C293.395 19.1317 293.45 19.3993 293.561 19.6668C293.671 19.9187 293.726 20.1784 293.726 20.446C293.726 20.7607 293.71 21.0677 293.679 21.3667C293.647 21.65 293.631 21.9491 293.631 22.2639C293.631 22.5 293.537 22.681 293.348 22.8069C293.174 22.9328 292.977 23.043 292.757 23.1375C292.552 23.2319 292.363 23.3263 292.189 23.4208C292.016 23.5152 291.929 23.649 291.929 23.8221C291.929 23.9481 291.85 24.011 291.693 24.011C291.551 23.9953 291.433 23.9874 291.338 23.9874C290.645 23.9874 289.951 23.9008 289.258 23.7277C288.58 23.5546 287.902 23.468 287.224 23.468C286.483 23.468 285.751 23.5231 285.026 23.6333C284.3 23.7277 283.568 23.7749 282.827 23.7749C282.275 23.7749 281.723 23.7592 281.172 23.7277C280.636 23.6962 280.092 23.6805 279.54 23.6805C279.399 23.6805 279.131 23.712 278.737 23.7749C278.343 23.8221 277.925 23.893 277.483 23.9874C277.058 24.0661 276.648 24.1684 276.254 24.2943C275.86 24.4045 275.584 24.5147 275.427 24.6249C275.411 24.7036 275.403 24.8137 275.403 24.9554C275.403 25.6952 275.616 26.4585 276.041 27.2455C276.483 28.0325 277.058 28.7487 277.767 29.394C278.476 30.0393 279.272 30.5745 280.155 30.9995C281.038 31.4244 281.928 31.6369 282.827 31.6369C283.347 31.6369 283.859 31.6605 284.364 31.7078C284.884 31.7392 285.388 31.8494 285.877 32.0383C286.302 31.8337 286.688 31.5976 287.035 31.33C287.398 31.0624 287.744 30.7791 288.075 30.4801C288.406 30.181 288.73 29.8741 289.045 29.5593C289.36 29.2445 289.683 28.9297 290.014 28.6149C290.077 28.5519 290.227 28.4968 290.463 28.4496C290.716 28.3867 290.983 28.3394 291.267 28.308C291.551 28.2607 291.819 28.2293 292.071 28.2135C292.339 28.182 292.52 28.1663 292.615 28.1663C292.977 28.1663 293.316 28.2214 293.631 28.3316C293.726 28.6936 293.773 29.0477 293.773 29.394ZM290.227 19.8085C290.227 19.5724 290.188 19.3442 290.109 19.1238C290.03 18.9035 289.967 18.6752 289.92 18.4391C289.841 17.9984 289.801 17.5734 289.801 17.1642C289.801 16.7392 289.738 16.3143 289.612 15.8893H289.589C289.589 15.9837 289.557 16.0782 289.494 16.1726C289.431 16.2513 289.344 16.2907 289.234 16.2907C289.045 16.2907 288.864 16.2434 288.69 16.149C288.517 16.0546 288.367 15.9365 288.241 15.7949C287.642 15.5273 287.098 15.2754 286.61 15.0393C286.137 14.8032 285.656 14.5986 285.167 14.4255C284.695 14.2366 284.182 14.095 283.631 14.0005C283.095 13.8903 282.472 13.8352 281.763 13.8352C281.7 13.8352 281.637 13.8431 281.574 13.8589C281.526 13.8589 281.479 13.8825 281.432 13.9297L281.55 14.1894L281.361 14.2366C280.935 14.3153 280.581 14.394 280.297 14.4727C280.029 14.5357 279.785 14.6301 279.564 14.756C279.343 14.8819 279.123 15.0393 278.902 15.2282C278.697 15.4014 278.429 15.6296 278.098 15.9129C277.941 16.0546 277.767 16.1647 277.578 16.2434C277.405 16.3064 277.223 16.3694 277.034 16.4323C276.861 16.4795 276.688 16.5346 276.514 16.5976C276.357 16.6605 276.223 16.7628 276.112 16.9045C276.002 17.298 275.836 17.6836 275.616 18.0614C275.411 18.4234 275.308 18.809 275.308 19.2183C275.308 19.4543 275.403 19.6668 275.592 19.8557C275.797 20.0288 276.049 20.1784 276.349 20.3043C276.664 20.4302 277.003 20.5404 277.365 20.6348C277.744 20.7293 278.114 20.8001 278.476 20.8473C278.839 20.8945 279.17 20.9339 279.469 20.9654C279.785 20.9811 280.029 20.989 280.202 20.989C280.801 20.989 281.392 20.9339 281.976 20.8237C282.559 20.6978 283.15 20.6348 283.749 20.6348C284.364 20.6348 284.978 20.6663 285.593 20.7293C286.208 20.7765 286.822 20.8001 287.437 20.8001C287.595 20.8001 287.831 20.7922 288.146 20.7765C288.462 20.7607 288.769 20.7214 289.068 20.6584C289.384 20.5797 289.652 20.4774 289.872 20.3515C290.109 20.2099 290.227 20.0288 290.227 19.8085Z" fill="white"/>
<path d="M267.506 22.8305C267.506 23.5073 267.435 24.1684 267.293 24.8137C267.152 25.4591 267.033 26.1123 266.939 26.7733C266.907 26.9937 266.884 27.1983 266.868 27.3872C266.868 27.5603 266.852 27.7335 266.821 27.9066C266.789 28.064 266.734 28.2293 266.655 28.4024C266.576 28.5598 266.458 28.7251 266.301 28.8982C266.096 29.1186 265.954 29.3547 265.875 29.6065C265.796 29.8426 265.717 30.0944 265.639 30.362C265.544 30.6296 265.434 30.8342 265.308 30.9759C265.197 31.1018 265.071 31.212 264.929 31.3064C264.803 31.4008 264.661 31.4953 264.504 31.5897C264.362 31.6684 264.212 31.7943 264.054 31.9675C263.96 32.0776 263.897 32.1878 263.865 32.298C263.85 32.4082 263.834 32.5184 263.818 32.6285C263.802 32.723 263.763 32.8174 263.7 32.9118C263.653 33.0063 263.55 33.085 263.392 33.1479C263.14 33.2581 262.959 33.384 262.849 33.5257C262.738 33.6516 262.596 33.8011 262.423 33.9743C262.25 34.1474 262.021 34.3127 261.737 34.4701C261.47 34.6432 261.178 34.7928 260.863 34.9187C260.563 35.0446 260.256 35.1469 259.941 35.2256C259.625 35.3043 259.35 35.3436 259.113 35.3436C258.814 35.3436 258.514 35.3122 258.215 35.2492C257.931 35.1862 257.639 35.1548 257.34 35.1548C257.167 35.1548 257.033 35.1784 256.938 35.2256C256.859 35.2886 256.788 35.3515 256.725 35.4145C256.662 35.4774 256.591 35.5325 256.512 35.5797C256.449 35.6427 256.347 35.6742 256.205 35.6742C255.937 35.6742 255.543 35.564 255.023 35.3436C254.503 35.139 253.951 34.9029 253.368 34.6354C252.801 34.3835 252.249 34.1553 251.713 33.9507C251.177 33.7303 250.767 33.6201 250.484 33.6201C250.231 33.6201 250.026 33.7146 249.869 33.9035C249.727 34.0766 249.609 34.2969 249.514 34.5645C249.42 34.8478 249.349 35.1469 249.301 35.4617C249.27 35.7922 249.246 36.0992 249.23 36.3825C249.23 36.6658 249.23 36.9019 249.23 37.0908C249.246 37.2796 249.254 37.3741 249.254 37.3741C249.254 37.5315 249.223 37.6338 249.16 37.681C249.112 37.7282 249.041 37.7518 248.947 37.7518C248.884 37.7518 248.821 37.744 248.758 37.7282C248.695 37.7282 248.624 37.7203 248.545 37.7046C248.545 37.8935 248.576 38.0981 248.639 38.3185C248.718 38.5388 248.805 38.767 248.899 39.0031C249.01 39.255 249.112 39.4989 249.207 39.735C249.301 39.9711 249.372 40.1915 249.42 40.3961C249.53 40.8998 249.64 41.2618 249.751 41.4822C249.877 41.7025 250.034 41.852 250.223 41.9307C250.413 42.0094 250.649 42.0409 250.933 42.0252C251.216 42.0252 251.579 42.0488 252.02 42.096C252.225 42.1275 252.446 42.1668 252.682 42.2141C252.919 42.277 253.132 42.3636 253.321 42.4738C253.51 42.5997 253.667 42.7492 253.794 42.9223C253.92 43.0955 253.983 43.308 253.983 43.5598C253.983 44.0792 253.825 44.4491 253.51 44.6695C253.21 44.8898 252.824 45 252.351 45C251.705 45 251.059 44.9528 250.413 44.8583C249.782 44.7639 249.136 44.7167 248.474 44.7167C247.78 44.7167 247.087 44.756 246.393 44.8347C245.716 44.9134 245.038 44.9528 244.36 44.9528C244.187 44.9528 243.942 44.9213 243.627 44.8583C243.328 44.7954 243.02 44.7009 242.705 44.575C242.406 44.4648 242.138 44.3232 241.901 44.15C241.681 43.9926 241.57 43.8116 241.57 43.607C241.57 43.4654 241.649 43.3237 241.807 43.182C241.98 43.0561 242.169 42.946 242.374 42.8515C242.595 42.7571 242.815 42.6784 243.036 42.6154C243.257 42.5682 243.43 42.5446 243.556 42.5446C243.84 42.5446 244.1 42.4974 244.336 42.4029C244.589 42.3242 244.833 42.2377 245.069 42.1432C245.306 42.0488 245.542 41.9543 245.779 41.8599C246.015 41.7812 246.267 41.7419 246.535 41.7419C246.677 41.1437 246.764 40.5456 246.795 39.9475C246.843 39.3494 246.866 38.7513 246.866 38.1532C246.866 37.7282 246.858 37.3032 246.843 36.8783C246.843 36.4533 246.843 36.0283 246.843 35.6033C246.843 34.7691 246.898 33.9428 247.008 33.1243C247.134 32.3059 247.197 31.4717 247.197 30.6217C247.197 30.1023 247.174 29.5829 247.126 29.0635C247.095 28.5441 247.063 28.0247 247.032 27.5052C246.984 27.4423 246.929 27.2377 246.866 26.8914C246.803 26.5294 246.74 26.1359 246.677 25.7109C246.63 25.2859 246.59 24.8846 246.559 24.5068C246.527 24.1133 246.512 23.8536 246.512 23.7277C246.512 23.5546 246.535 23.405 246.583 23.2791C246.646 23.1375 246.709 23.0194 246.772 22.925C246.835 22.8148 246.89 22.7203 246.937 22.6416C247 22.563 247.032 22.4921 247.032 22.4292C247.032 22.4134 247.008 22.3583 246.961 22.2639C246.914 22.1695 246.858 22.0514 246.795 21.9097C246.748 21.7681 246.701 21.6107 246.653 21.4376C246.606 21.2644 246.583 21.0913 246.583 20.9181C246.583 20.4145 246.638 19.9108 246.748 19.4071C246.874 18.9035 246.937 18.3998 246.937 17.8961C246.937 17.2193 246.693 16.6291 246.204 16.1254C245.968 15.8893 245.779 15.7083 245.637 15.5824C245.495 15.4564 245.353 15.3699 245.211 15.3227C245.069 15.2597 244.904 15.2203 244.715 15.2046C244.526 15.1731 244.266 15.1338 243.935 15.0866C243.761 15.0708 243.517 15.0236 243.202 14.9449C242.902 14.8505 242.603 14.7403 242.303 14.6144C242.004 14.4884 241.736 14.3389 241.499 14.1658C241.279 13.9926 241.168 13.8038 241.168 13.5992C241.168 13.3316 241.294 13.1033 241.547 12.9145C241.799 12.7099 242.09 12.5525 242.421 12.4423C242.768 12.3164 243.115 12.2298 243.462 12.1826C243.808 12.1196 244.084 12.0881 244.289 12.0881C244.51 12.0881 244.73 12.1117 244.951 12.159C245.172 12.1904 245.361 12.2849 245.519 12.4423C245.692 12.2691 245.905 12.159 246.157 12.1117C246.409 12.0488 246.653 12.0173 246.89 12.0173C247.568 12.0173 248.088 12.1196 248.45 12.3242C248.813 12.5288 249.097 12.7571 249.301 13.0089C249.522 13.245 249.695 13.4654 249.822 13.67C249.963 13.8746 250.137 13.9769 250.342 13.9769C250.468 13.9769 250.586 13.9533 250.696 13.9061C250.822 13.8589 250.949 13.8038 251.075 13.7408C251.406 13.5834 251.902 13.3945 252.564 13.1742C253.226 12.9381 253.927 12.7177 254.668 12.5131C255.409 12.2928 256.118 12.1117 256.796 11.9701C257.474 11.8284 257.986 11.7576 258.333 11.7576C258.506 11.7576 258.751 11.8048 259.066 11.8993C259.397 11.978 259.759 12.0881 260.153 12.2298C260.547 12.3557 260.957 12.5131 261.383 12.702C261.808 12.8751 262.202 13.0561 262.565 13.245C262.927 13.4339 263.243 13.6228 263.511 13.8116C263.779 13.9848 263.96 14.1422 264.054 14.2838C264.228 14.5671 264.409 14.8111 264.598 15.0157C264.803 15.2203 265.071 15.3777 265.402 15.4879C265.497 15.6138 265.552 15.7476 265.568 15.8893C265.599 16.0309 265.615 16.1805 265.615 16.3379V16.7865C265.615 17.1013 265.67 17.3452 265.78 17.5184C265.891 17.6915 266.009 17.841 266.135 17.9669C266.261 18.0771 266.379 18.1873 266.49 18.2975C266.6 18.3919 266.655 18.5336 266.655 18.7224C266.655 18.8326 266.624 18.9349 266.561 19.0294C266.498 19.1081 266.466 19.1946 266.466 19.2891C266.466 19.5252 266.521 19.7691 266.632 20.021C266.742 20.2571 266.86 20.5246 266.986 20.8237C267.112 21.107 267.23 21.4139 267.341 21.7445C267.451 22.075 267.506 22.437 267.506 22.8305ZM256.678 12.7728C256.678 12.6941 256.639 12.6154 256.56 12.5367C256.481 12.458 256.402 12.4187 256.323 12.4187C256.166 12.4187 256.063 12.5052 256.016 12.6784C255.984 12.8358 255.969 12.9774 255.969 13.1033C255.969 13.0719 255.977 13.0561 255.992 13.0561C256.024 13.0561 256.047 13.064 256.063 13.0797L255.969 13.127C256.079 13.127 256.221 13.1112 256.394 13.0797C256.583 13.0325 256.678 12.9302 256.678 12.7728ZM264.716 23.5624C264.716 23.0902 264.653 22.6338 264.527 22.1931C264.401 21.7366 264.244 21.3038 264.054 20.8945C263.865 20.4696 263.653 20.0603 263.416 19.6668C263.18 19.2733 262.943 18.8877 262.707 18.51C262.644 18.4155 262.604 18.3132 262.589 18.203C262.573 18.0771 262.565 17.9591 262.565 17.8489C262.565 17.723 262.549 17.6049 262.518 17.4947C262.502 17.3688 262.455 17.2586 262.376 17.1642C262.25 17.0226 262.132 16.9439 262.021 16.9281C261.911 16.8966 261.801 16.873 261.69 16.8573C261.596 16.8415 261.485 16.8022 261.359 16.7392C261.249 16.6763 261.139 16.5346 261.028 16.3143C260.949 16.1726 260.776 16.0152 260.508 15.8421C260.256 15.6689 259.972 15.5037 259.657 15.3463C259.357 15.1889 259.058 15.063 258.758 14.9685C258.475 14.8583 258.254 14.8032 258.096 14.8032C257.781 14.8032 257.466 14.8741 257.151 15.0157C256.851 15.1416 256.544 15.2046 256.229 15.2046C256.008 15.2046 255.803 15.1653 255.614 15.0866C255.441 15.0079 255.267 14.9292 255.094 14.8505C254.936 14.756 254.771 14.6695 254.597 14.5908C254.424 14.5121 254.243 14.4727 254.054 14.4727H253.935C253.967 14.6301 253.983 14.756 253.983 14.8505C253.983 14.9921 253.951 15.1102 253.888 15.2046C253.825 15.2833 253.738 15.3541 253.628 15.4171C253.533 15.4801 253.423 15.543 253.297 15.606C253.187 15.6532 253.084 15.7083 252.99 15.7712C252.848 15.9444 252.769 16.1175 252.753 16.2907C252.753 16.4638 252.674 16.5504 252.517 16.5504C252.406 16.5504 252.32 16.5346 252.257 16.5031C252.257 16.6133 252.225 16.692 252.162 16.7392C252.099 16.7865 252.028 16.8258 251.949 16.8573C251.871 16.8888 251.792 16.9281 251.713 16.9753C251.634 17.0068 251.587 17.0698 251.571 17.1642C251.366 17.1799 251.177 17.3059 251.004 17.542C250.83 17.7623 250.681 18.0456 250.554 18.3919C250.428 18.7382 250.318 19.1238 250.223 19.5488C250.129 19.9738 250.05 20.3909 249.987 20.8001C249.924 21.1936 249.877 21.5635 249.845 21.9097C249.814 22.2403 249.798 22.4921 249.798 22.6653C249.798 23.2319 249.829 23.7985 249.892 24.3652C249.971 24.916 250.011 25.4748 250.011 26.0414C250.011 26.4664 249.995 26.8914 249.963 27.3164C249.948 27.7413 249.924 28.1742 249.892 28.6149C250.287 29.0399 250.665 29.4648 251.027 29.8898C251.39 30.3148 251.768 30.7004 252.162 31.0467C252.572 31.3772 253.021 31.6605 253.51 31.8966C253.998 32.117 254.566 32.235 255.212 32.2508C255.464 32.2508 255.716 32.2823 255.969 32.3452C256.221 32.4082 256.473 32.4711 256.725 32.5341C256.977 32.5971 257.222 32.66 257.458 32.723C257.71 32.7702 257.963 32.7938 258.215 32.7938C258.451 32.7938 258.703 32.7466 258.971 32.6521C259.239 32.542 259.499 32.4082 259.751 32.2508C260.019 32.0934 260.272 31.9281 260.508 31.755C260.744 31.5661 260.941 31.3851 261.099 31.212C261.225 31.0703 261.375 30.968 261.548 30.905C261.737 30.8421 261.895 30.7476 262.021 30.6217C262.116 30.5273 262.179 30.425 262.21 30.3148C262.242 30.2046 262.265 30.0944 262.281 29.9843C262.313 29.8741 262.352 29.7718 262.399 29.6773C262.447 29.5671 262.541 29.4727 262.683 29.394C262.983 29.2366 263.172 29.1264 263.251 29.0635C263.329 28.9848 263.369 28.851 263.369 28.6621V28.2135C263.369 28.0561 263.408 27.946 263.487 27.883C263.566 27.8043 263.653 27.7335 263.747 27.6705C263.842 27.5918 263.928 27.4974 264.007 27.3872C264.086 27.2613 264.125 27.0567 264.125 26.7733C264.125 26.5687 264.11 26.372 264.078 26.1831C264.047 25.9785 264.031 25.7739 264.031 25.5692C264.031 25.3646 264.062 25.1758 264.125 25.0026C264.204 24.8295 264.283 24.6642 264.362 24.5068C264.456 24.3494 264.535 24.1999 264.598 24.0582C264.677 23.9008 264.716 23.7356 264.716 23.5624Z" fill="white"/>
<path d="M239.159 27.1039C239.159 27.3085 239.119 27.5131 239.04 27.7177C238.977 27.9066 238.899 28.1033 238.804 28.308C238.709 28.4968 238.615 28.6857 238.52 28.8746C238.442 29.0635 238.386 29.2602 238.355 29.4648C238.276 29.8898 238.111 30.2754 237.858 30.6217C237.622 30.9522 237.346 31.267 237.031 31.5661C236.716 31.8651 236.385 32.1563 236.038 32.4396C235.691 32.7072 235.384 32.9827 235.116 33.266C234.879 33.5021 234.627 33.6201 234.359 33.6201C234.202 33.6201 234.052 33.6044 233.91 33.5729C233.768 33.5414 233.618 33.5257 233.461 33.5257C233.24 33.5257 233.059 33.565 232.917 33.6437C232.791 33.7224 232.665 33.809 232.539 33.9034C232.428 33.9821 232.287 34.0608 232.113 34.1395C231.956 34.2182 231.735 34.2576 231.451 34.2576C231.246 34.2576 231.049 34.3127 230.86 34.4229C230.671 34.533 230.482 34.5881 230.293 34.5881C230.025 34.5881 229.71 34.5094 229.347 34.352C229 34.1946 228.614 34.1159 228.188 34.1159C227.921 34.1159 227.653 34.1317 227.385 34.1632C227.117 34.1789 226.849 34.1868 226.581 34.1868C226.344 34.1868 226.108 34.1553 225.872 34.0923C225.651 34.0136 225.43 33.9349 225.21 33.8562C225.005 33.7618 224.792 33.6831 224.571 33.6201C224.35 33.5414 224.122 33.5021 223.886 33.5021C223.413 33.5021 223.011 33.6201 222.68 33.8562C222.349 34.0923 222.049 34.352 221.781 34.6353C221.529 34.9344 221.269 35.202 221.001 35.4381C220.749 35.6742 220.457 35.7922 220.126 35.7922C219.827 35.7922 219.622 35.7371 219.512 35.627C219.417 35.5325 219.354 35.4145 219.322 35.2728C219.307 35.1311 219.291 34.9738 219.275 34.8006C219.259 34.6432 219.189 34.5016 219.062 34.3756C218.826 34.1238 218.668 33.8956 218.59 33.691C218.511 33.4706 218.471 33.1873 218.471 32.841C218.471 32.0855 218.534 31.3536 218.66 30.6453C218.802 29.9213 218.873 29.1815 218.873 28.426C218.873 28.1584 218.842 27.8987 218.779 27.6469C218.716 27.3951 218.637 27.1668 218.542 26.9622C218.463 26.7576 218.393 26.5845 218.329 26.4428C218.266 26.3011 218.235 26.1988 218.235 26.1359C218.235 25.9942 218.274 25.8447 218.353 25.6873C218.432 25.5299 218.519 25.3882 218.613 25.2623C218.724 25.1207 218.834 25.0105 218.944 24.9318C219.07 24.8373 219.173 24.7901 219.252 24.7901C219.409 24.7901 219.543 24.8295 219.653 24.9082C219.78 24.9869 219.898 25.0734 220.008 25.1679C220.134 25.2466 220.252 25.3253 220.363 25.404C220.489 25.4827 220.639 25.522 220.812 25.522C220.844 25.522 220.867 25.522 220.883 25.522C220.899 25.5063 220.922 25.4984 220.954 25.4984C221.174 25.8604 221.348 26.2539 221.474 26.6789C221.6 27.0881 221.726 27.4974 221.852 27.9066C221.994 28.3001 222.16 28.6857 222.349 29.0635C222.554 29.4255 222.837 29.7481 223.2 30.0315C223.294 30.1102 223.405 30.1967 223.531 30.2912C223.657 30.3856 223.783 30.48 223.909 30.5745C224.051 30.6689 224.185 30.7476 224.311 30.8106C224.453 30.8735 224.579 30.905 224.689 30.905C224.863 30.905 225.028 30.8893 225.186 30.8578C225.359 30.8263 225.533 30.8106 225.706 30.8106C225.942 30.8106 226.061 30.8893 226.061 31.0467C226.061 31.0782 226.045 31.1411 226.013 31.2356H226.297H226.463C227.062 31.2356 227.66 31.1647 228.259 31.0231C228.858 30.8814 229.465 30.8106 230.08 30.8106C230.364 30.8106 230.647 30.8421 230.931 30.905C231.231 30.9522 231.498 31.0624 231.735 31.2356C232.034 31.0939 232.287 30.9129 232.491 30.6925C232.696 30.4722 232.901 30.2597 233.106 30.0551C233.311 29.8347 233.54 29.6458 233.792 29.4884C234.044 29.3153 234.367 29.2209 234.761 29.2051C234.84 29.1107 234.879 29.0005 234.879 28.8746C234.895 28.7487 234.903 28.6306 234.903 28.5204C234.903 28.3945 234.911 28.2765 234.927 28.1663C234.958 28.0561 235.021 27.9538 235.116 27.8594C235.273 27.7177 235.392 27.5761 235.47 27.4344C235.565 27.277 235.612 27.0881 235.612 26.8678C235.612 26.4428 235.494 26.0493 235.258 25.6873C235.021 25.3095 234.714 24.9711 234.336 24.6721C233.973 24.3573 233.548 24.0818 233.059 23.8457C232.586 23.5939 232.097 23.3814 231.593 23.2083C231.104 23.0351 230.632 22.9092 230.174 22.8305C229.717 22.7361 229.315 22.6889 228.969 22.6889C228.575 22.6889 228.181 22.7282 227.787 22.8069C227.408 22.8699 227.038 22.9879 226.675 23.1611C226.675 22.8148 226.597 22.5866 226.439 22.4764C226.281 22.3662 226.092 22.2875 225.872 22.2403C225.651 22.1931 225.422 22.1301 225.186 22.0514C224.965 21.957 224.792 21.7602 224.666 21.4612C224.398 21.8074 224.059 22.0593 223.649 22.2167C223.255 22.3741 222.853 22.4528 222.443 22.4528C222.034 22.4528 221.655 22.3741 221.308 22.2167C220.962 22.0593 220.646 21.8468 220.363 21.5792C220.095 21.3116 219.874 21.0047 219.701 20.6584C219.543 20.3122 219.456 19.9423 219.441 19.5488C219.425 19.2812 219.37 19.0451 219.275 18.8405C219.181 18.6359 219.078 18.4391 218.968 18.2502C218.858 18.0614 218.755 17.8646 218.66 17.66C218.582 17.4554 218.542 17.2114 218.542 16.9281C218.542 16.2198 218.574 15.6689 218.637 15.2754C218.716 14.8662 218.81 14.5593 218.921 14.3547C219.031 14.1343 219.149 13.9848 219.275 13.9061C219.417 13.8116 219.559 13.7251 219.701 13.6464C219.843 13.5519 219.977 13.426 220.103 13.2686C220.229 13.1112 220.331 12.8594 220.41 12.5131C220.457 12.277 220.528 12.1196 220.623 12.0409C220.717 11.9622 220.883 11.9071 221.119 11.8756C221.324 11.8442 221.458 11.7969 221.521 11.734C221.584 11.671 221.624 11.6002 221.639 11.5215C221.671 11.4428 221.703 11.3641 221.734 11.2854C221.766 11.191 221.844 11.1044 221.97 11.0257C222.301 10.8053 222.625 10.6715 222.94 10.6243C223.271 10.5614 223.61 10.5299 223.956 10.5299C224.161 10.5299 224.358 10.5378 224.548 10.5535C224.737 10.5535 224.942 10.5535 225.162 10.5535C225.824 10.5535 226.47 10.522 227.101 10.4591C227.731 10.3961 228.378 10.3646 229.04 10.3646C229.544 10.3646 230.001 10.4197 230.411 10.5299C230.836 10.6243 231.207 10.7345 231.522 10.8604C231.837 10.9863 232.105 11.1044 232.326 11.2146C232.562 11.309 232.752 11.3562 232.893 11.3562C233.161 11.3562 233.414 11.309 233.65 11.2146C233.902 11.1044 234.162 11.0414 234.43 11.0257C234.556 11.1359 234.698 11.2382 234.856 11.3326C235.029 11.4113 235.202 11.4507 235.376 11.4507C235.502 11.4507 235.597 11.4113 235.66 11.3326C235.723 11.2539 235.762 11.1516 235.778 11.0257C235.998 11.0887 236.211 11.1988 236.416 11.3562C236.621 11.5136 236.802 11.7025 236.96 11.9229C237.133 12.1275 237.267 12.3557 237.362 12.6075C237.456 12.8436 237.504 13.0719 237.504 13.2922C237.504 13.8746 237.456 14.457 237.362 15.0393C237.283 15.606 237.244 16.1805 237.244 16.7628C237.244 17.361 237.322 17.9197 237.48 18.4391C237.259 18.6123 237.015 18.7697 236.747 18.9113C236.495 19.0372 236.282 19.2182 236.109 19.4543L236.085 19.4307C235.975 19.3363 235.833 19.2182 235.66 19.0766C235.502 18.9192 235.329 18.7697 235.139 18.628C234.966 18.4863 234.793 18.3683 234.619 18.2739C234.446 18.1637 234.288 18.1086 234.146 18.1086H234.099C234.02 18.0614 233.949 18.0063 233.886 17.9433C233.839 17.8804 233.815 17.8017 233.815 17.7072C233.815 17.5498 233.863 17.4082 233.957 17.2823C234.052 17.1563 234.099 17.0147 234.099 16.8573C234.099 16.8101 234.028 16.6999 233.886 16.5267C233.745 16.3536 233.579 16.1805 233.39 16.0073C233.217 15.8185 233.043 15.6532 232.87 15.5115C232.696 15.3541 232.57 15.2676 232.491 15.2518C232.334 15.2203 232.168 15.1653 231.995 15.0866C231.822 15.0079 231.648 14.9292 231.475 14.8505C231.301 14.7718 231.136 14.7009 230.978 14.638C230.836 14.575 230.718 14.5435 230.624 14.5435C230.419 14.5435 230.214 14.575 230.009 14.638C229.804 14.6852 229.591 14.7167 229.371 14.7324H229.394L228.33 14.6144C227.81 14.5514 227.298 14.4255 226.794 14.2366C226.289 14.0477 225.769 13.9533 225.233 13.9533C224.76 13.9533 224.414 14.0635 224.193 14.2838C223.972 14.5042 223.791 14.756 223.649 15.0393C223.507 15.3069 223.365 15.5509 223.224 15.7712C223.082 15.9916 222.845 16.1018 222.514 16.1018C222.42 16.1018 222.349 16.0939 222.301 16.0782C222.459 16.5818 222.601 17.0068 222.727 17.3531C222.869 17.6994 223.034 18.0142 223.224 18.2975C223.413 18.565 223.649 18.8247 223.933 19.0766C224.217 19.3127 224.579 19.5724 225.02 19.8557C225.068 19.8872 225.131 19.9423 225.21 20.021C225.304 20.0997 225.399 20.1862 225.493 20.2807C225.588 20.3594 225.674 20.4302 225.753 20.4932C225.848 20.5561 225.919 20.5876 225.966 20.5876C226.234 20.5876 226.486 20.5246 226.723 20.3987C226.975 20.2728 227.235 20.2098 227.503 20.2098C227.692 20.2098 227.865 20.2571 228.023 20.3515C228.196 20.4302 228.378 20.4696 228.567 20.4696C228.756 20.4696 228.937 20.4381 229.111 20.3751C229.284 20.2964 229.473 20.2571 229.678 20.2571C229.757 20.2571 229.836 20.2649 229.914 20.2807C230.009 20.2964 230.096 20.3122 230.174 20.3279C230.647 20.4538 231.12 20.5168 231.593 20.5168C232.066 20.501 232.547 20.501 233.035 20.5168C233.382 20.5168 233.729 20.5797 234.076 20.7057C234.438 20.8316 234.785 20.9968 235.116 21.2015C235.447 21.3903 235.754 21.6107 236.038 21.8625C236.322 22.1144 236.566 22.3741 236.771 22.6416C236.928 22.862 237.102 23.0587 237.291 23.2319C237.48 23.405 237.661 23.586 237.835 23.7749C238.024 23.948 238.189 24.1369 238.331 24.3415C238.473 24.5462 238.576 24.7823 238.639 25.0498C238.717 25.3646 238.82 25.7109 238.946 26.0887C239.088 26.4664 239.159 26.8048 239.159 27.1039Z" fill="white"/>
<path d="M214.854 33.7146C214.854 33.9349 214.799 34.1159 214.689 34.2576C214.578 34.3993 214.436 34.5094 214.263 34.5881C214.105 34.6668 213.924 34.714 213.719 34.7298C213.53 34.7613 213.349 34.777 213.175 34.777C212.939 34.777 212.703 34.7613 212.466 34.7298C212.23 34.6983 211.993 34.6668 211.757 34.6353C211.442 34.7455 211.063 34.8557 210.622 34.9659C210.196 35.0918 209.81 35.1548 209.463 35.1548C209.369 35.1548 209.274 35.139 209.18 35.1075C209.101 35.0761 209.022 35.0603 208.943 35.0603C208.675 35.0603 208.4 35.1075 208.116 35.202C207.848 35.3122 207.58 35.3672 207.312 35.3672C206.855 35.3672 206.414 35.3043 205.988 35.1784C205.578 35.0682 205.145 34.9974 204.688 34.9659C203.947 34.9029 203.372 34.6196 202.962 34.1159C202.568 33.5965 202.355 32.9827 202.323 32.2744C202.812 31.9753 203.324 31.7707 203.86 31.6605C204.412 31.5504 204.963 31.4953 205.515 31.4953C205.83 31.4953 206.138 31.5031 206.437 31.5189C206.752 31.5346 207.068 31.5582 207.383 31.5897C207.336 30.4092 207.233 29.2287 207.076 28.0483C206.918 26.8678 206.839 25.6794 206.839 24.4832C206.839 24.074 206.847 23.6647 206.863 23.2555C206.894 22.8463 206.949 22.437 207.028 22.0278C207.107 21.6186 207.21 21.2172 207.336 20.8237C207.462 20.4145 207.525 20.0052 207.525 19.596C207.525 19.3284 207.485 19.0845 207.407 18.8641C207.328 18.628 207.225 18.3919 207.099 18.1558C206.989 17.9669 206.918 17.7544 206.886 17.5183C206.855 17.2823 206.816 17.0462 206.768 16.8101C206.721 16.5582 206.65 16.3143 206.555 16.0782C206.461 15.8421 206.303 15.6296 206.083 15.4407C205.878 15.2518 205.586 15.1023 205.208 14.9921C204.83 14.8819 204.333 14.8268 203.718 14.8268C203.529 14.8268 203.245 14.8583 202.867 14.9213C202.505 14.9685 202.126 15.0393 201.732 15.1338C201.354 15.2125 200.992 15.3148 200.645 15.4407C200.314 15.5509 200.085 15.6689 199.959 15.7948C199.88 15.8735 199.778 15.9837 199.652 16.1254C199.541 16.267 199.415 16.4166 199.273 16.574C199.147 16.7156 199.021 16.8494 198.895 16.9753C198.769 17.0855 198.659 17.1485 198.564 17.1642C198.328 17.2114 198.147 17.2508 198.02 17.2823C197.91 17.3137 197.816 17.3609 197.737 17.4239C197.674 17.4869 197.619 17.5813 197.571 17.7072C197.524 17.8174 197.445 17.9827 197.335 18.203C197.303 18.266 197.24 18.3919 197.146 18.5808C197.051 18.7539 196.957 18.8405 196.862 18.8405C196.783 18.8405 196.728 18.809 196.696 18.746C196.665 18.6831 196.61 18.6516 196.531 18.6516C196.499 18.6516 196.452 18.6752 196.389 18.7224C196.342 18.7539 196.302 18.7854 196.271 18.8169V19.4779C196.161 19.6039 196.058 19.6747 195.964 19.6904C195.885 19.6904 195.814 19.6983 195.751 19.714C195.703 19.7298 195.664 19.7691 195.633 19.8321C195.617 19.8951 195.609 20.0446 195.609 20.2807C195.609 20.4538 195.569 20.6112 195.491 20.7529C195.412 20.8945 195.325 21.0362 195.231 21.1778C195.152 21.3195 195.073 21.469 194.994 21.6264C194.915 21.7681 194.876 21.9334 194.876 22.1222C194.876 22.437 194.915 22.744 194.994 23.043C195.089 23.3263 195.136 23.6254 195.136 23.9402C195.136 24.1448 195.104 24.3179 195.041 24.4596C194.978 24.6012 194.9 24.735 194.805 24.8609C194.726 24.9711 194.655 25.0813 194.592 25.1915C194.529 25.3017 194.498 25.4355 194.498 25.5928C194.498 25.8132 194.537 26.0178 194.616 26.2067C194.71 26.3798 194.805 26.5608 194.9 26.7497C194.994 26.9386 195.081 27.1353 195.16 27.34C195.254 27.5446 195.302 27.7649 195.302 28.001C195.302 28.2686 195.27 28.5441 195.207 28.8274C195.144 29.0949 195.112 29.3704 195.112 29.6537C195.112 29.9842 195.16 30.2439 195.254 30.4328C195.365 30.606 195.499 30.7398 195.656 30.8342C195.83 30.9286 196.027 30.9995 196.247 31.0467C196.468 31.0939 196.689 31.1647 196.909 31.2592C197.146 31.3379 197.382 31.4559 197.619 31.6133C197.855 31.755 198.076 31.9753 198.28 32.2744L198.422 32.2508C198.69 32.2508 198.887 32.3609 199.013 32.5813C199.14 32.8017 199.203 33.0299 199.203 33.266C199.203 33.4863 199.155 33.6831 199.061 33.8562C198.966 34.0136 198.919 34.2261 198.919 34.4937C198.919 34.6826 198.714 34.84 198.304 34.9659C197.894 35.0918 197.429 35.1862 196.909 35.2492C196.389 35.3279 195.885 35.3751 195.396 35.3909C194.923 35.4223 194.608 35.4381 194.45 35.4381C194.261 35.4381 193.97 35.4302 193.576 35.4145C193.197 35.4145 192.764 35.3987 192.275 35.3672C191.802 35.3515 191.306 35.32 190.786 35.2728C190.266 35.2256 189.785 35.1548 189.344 35.0603C188.902 34.9816 188.524 34.8714 188.209 34.7298C187.909 34.6039 187.72 34.4465 187.641 34.2576C187.562 34.0687 187.484 33.8641 187.405 33.6437C187.326 33.4076 187.287 33.1794 187.287 32.9591C187.287 32.723 187.342 32.5105 187.452 32.3216C187.578 32.1327 187.728 31.9596 187.901 31.8022C188.138 31.5818 188.398 31.4559 188.682 31.4244C188.965 31.3772 189.241 31.3536 189.509 31.3536C189.793 31.3379 190.061 31.3143 190.313 31.2828C190.581 31.2356 190.809 31.1096 190.999 30.905C191.203 30.7004 191.361 30.3777 191.471 29.937C191.598 29.4963 191.661 28.8746 191.661 28.0719C191.661 27.8672 191.645 27.6626 191.613 27.458C191.582 27.2377 191.542 27.033 191.495 26.8442C191.448 26.6395 191.408 26.4585 191.377 26.3011C191.345 26.1437 191.33 26.0257 191.33 25.947C191.33 25.8526 191.353 25.7502 191.4 25.6401C191.464 25.5299 191.527 25.4197 191.59 25.3095C191.668 25.1836 191.731 25.0498 191.779 24.9082C191.842 24.7665 191.873 24.6091 191.873 24.436C191.873 24.1684 191.818 23.9087 191.708 23.6569C191.613 23.405 191.566 23.1453 191.566 22.8777C191.566 22.6574 191.605 22.4449 191.684 22.2403C191.763 22.0357 191.802 21.8232 191.802 21.6028C191.802 21.4297 191.755 21.2644 191.661 21.107C191.566 20.9496 191.519 20.7765 191.519 20.5876C191.519 20.4145 191.55 20.2413 191.613 20.0682C191.676 19.8793 191.708 19.6904 191.708 19.5016C191.708 19.0923 191.661 18.6752 191.566 18.2502C191.471 17.8095 191.385 17.3846 191.306 16.9753C191.211 16.4874 191.03 16.1254 190.762 15.8893C190.51 15.6374 190.218 15.4486 189.887 15.3226C189.556 15.1967 189.21 15.0944 188.847 15.0157C188.485 14.937 188.154 14.819 187.854 14.6616C187.555 14.4884 187.302 14.2523 187.098 13.9533C186.908 13.6385 186.814 13.182 186.814 12.5839C186.814 12.1747 186.932 11.8599 187.168 11.6395C187.421 11.4192 187.72 11.2618 188.067 11.1674C188.414 11.0572 188.776 10.9942 189.154 10.9785C189.548 10.9627 189.887 10.9549 190.171 10.9549C190.628 10.9549 191.077 11.0257 191.519 11.1674C191.976 11.2933 192.433 11.372 192.89 11.4034C193.095 11.4192 193.292 11.49 193.481 11.6159C193.67 11.7261 193.844 11.8678 194.001 12.0409C194.159 12.1983 194.285 12.3793 194.379 12.5839C194.474 12.7885 194.529 12.9932 194.545 13.1978C194.545 13.2922 194.576 13.4654 194.64 13.7172C194.703 13.9533 194.774 14.1973 194.852 14.4491C194.947 14.7009 195.041 14.9292 195.136 15.1338C195.246 15.3226 195.357 15.4171 195.467 15.4171C195.562 15.3384 195.625 15.2518 195.656 15.1574C195.703 15.0472 195.743 14.9449 195.774 14.8505C195.79 14.756 195.893 14.6301 196.082 14.4727C196.287 14.3153 196.507 14.15 196.744 13.9769C196.996 13.8038 197.232 13.6385 197.453 13.4811C197.689 13.3237 197.855 13.1978 197.95 13.1033C198.044 12.9932 198.115 12.883 198.162 12.7728C198.225 12.6469 198.28 12.5367 198.328 12.4423C198.391 12.3321 198.462 12.2455 198.541 12.1826C198.635 12.1196 198.777 12.0881 198.966 12.0881H199.084C199.258 12.0881 199.423 12.0173 199.581 11.8756C199.738 11.7182 199.943 11.5451 200.196 11.3562C200.448 11.1674 200.779 11.0021 201.189 10.8604C201.598 10.703 202.142 10.6243 202.82 10.6243C203.403 10.6243 203.986 10.6401 204.569 10.6715C205.153 10.6873 205.704 10.766 206.224 10.9076C206.76 11.0493 207.257 11.2697 207.714 11.5687C208.187 11.8678 208.597 12.2849 208.943 12.82C209.211 13.245 209.432 13.5598 209.605 13.7644C209.779 13.969 209.921 14.1658 210.031 14.3547C210.141 14.5435 210.212 14.7718 210.244 15.0393C210.291 15.3069 210.315 15.7083 210.315 16.2434C210.315 16.4638 210.354 16.6684 210.433 16.8573C210.512 17.0462 210.598 17.2429 210.693 17.4475C210.803 17.6364 210.898 17.841 210.977 18.0614C211.055 18.2817 211.095 18.5336 211.095 18.8169C211.095 19.3678 211.063 19.9187 211 20.4696C210.937 21.0047 210.906 21.5477 210.906 22.0986C210.906 22.4921 210.827 22.8777 210.669 23.2555C210.527 23.6332 210.456 24.0189 210.456 24.4124C210.456 24.6012 210.504 24.7823 210.598 24.9554C210.693 25.1285 210.74 25.3253 210.74 25.5456C210.74 25.8132 210.709 26.0887 210.646 26.372C210.583 26.6395 210.551 26.9071 210.551 27.1747C210.551 27.4265 210.606 27.6469 210.717 27.8358C210.843 28.0246 210.906 28.2371 210.906 28.4732C210.906 28.5991 210.874 28.7015 210.811 28.7802C210.764 28.8589 210.701 28.9375 210.622 29.0162C210.559 29.0949 210.496 29.1815 210.433 29.276C210.386 29.3547 210.362 29.457 210.362 29.5829C210.362 29.819 210.417 30.0629 210.527 30.3148C210.654 30.5509 210.811 30.7712 211 30.9758C211.189 31.1647 211.402 31.3221 211.639 31.448C211.875 31.5582 212.111 31.6133 212.348 31.6133C212.553 31.6133 212.726 31.574 212.868 31.4953C213.026 31.4008 213.191 31.3536 213.365 31.3536C213.585 31.3536 213.782 31.448 213.956 31.6369C214.145 31.8101 214.302 32.0225 214.428 32.2744C214.57 32.5262 214.673 32.7859 214.736 33.0535C214.815 33.3211 214.854 33.5414 214.854 33.7146ZM209.747 24.8137C209.747 24.6563 209.692 24.5068 209.582 24.3651C209.487 24.2077 209.353 24.1291 209.18 24.1291C209.006 24.1291 208.888 24.2156 208.825 24.3888C208.762 24.5462 208.731 24.6957 208.731 24.8373C208.731 25.0105 208.762 25.1757 208.825 25.3331C208.888 25.4905 209.014 25.5692 209.203 25.5692C209.361 25.5692 209.479 25.522 209.558 25.4276C209.653 25.3174 209.716 25.1285 209.747 24.8609V24.8137ZM210.149 29.3468C210.149 29.2366 210.102 29.15 210.007 29.0871C209.928 29.0084 209.842 28.9454 209.747 28.8982C209.716 28.9926 209.661 29.0871 209.582 29.1815C209.503 29.276 209.424 29.3783 209.345 29.4884C209.266 29.5986 209.188 29.7088 209.109 29.819C209.046 29.9292 209.014 30.0393 209.014 30.1495C209.014 30.2754 209.054 30.3699 209.132 30.4328C209.211 30.4958 209.306 30.5509 209.416 30.5981C209.432 30.5037 209.479 30.4092 209.558 30.3148C209.653 30.2203 209.739 30.118 209.818 30.0079C209.897 29.8977 209.968 29.7954 210.031 29.7009C210.11 29.5907 210.149 29.4727 210.149 29.3468ZM194.427 24.2707C194.427 24.1605 194.403 24.0267 194.356 23.8693C194.324 23.7119 194.269 23.5624 194.19 23.4208C194.127 23.2634 194.041 23.1374 193.93 23.043C193.836 22.9328 193.717 22.8777 193.576 22.8777C193.402 22.8777 193.252 22.9328 193.126 23.043C193 23.1374 192.843 23.1847 192.654 23.1847H192.559C192.512 23.3578 192.488 23.5231 192.488 23.6805L192.512 23.8221L192.535 23.7513C192.583 23.9244 192.677 24.0582 192.819 24.1527C192.961 24.2471 193.111 24.3337 193.268 24.4124C193.442 24.4753 193.615 24.5383 193.788 24.6012C193.962 24.6642 194.112 24.7508 194.238 24.8609C194.364 24.7193 194.427 24.5225 194.427 24.2707Z" fill="white"/>
<path d="M183.977 3.06925C183.977 3.24239 183.914 3.39979 183.788 3.54145C183.677 3.68311 183.535 3.82476 183.362 3.96642C183.204 4.09234 183.039 4.21039 182.865 4.32057C182.692 4.43075 182.55 4.53305 182.44 4.62749C182.172 4.84785 181.849 4.95803 181.471 4.95803C181.218 4.95803 180.974 4.92655 180.738 4.86359C180.517 4.80063 180.281 4.76915 180.028 4.76915C179.918 4.76915 179.831 4.79276 179.768 4.83998C179.563 4.9659 179.366 5.03673 179.177 5.05247C178.988 5.06821 178.783 5.07608 178.562 5.07608C178.436 5.07608 178.263 5.02099 178.042 4.91081C177.837 4.78489 177.727 4.65897 177.711 4.53305L177.877 4.36779C177.703 4.43075 177.585 4.50157 177.522 4.58027C177.459 4.65897 177.412 4.74554 177.38 4.83998C177.365 4.93442 177.349 5.03673 177.333 5.1469C177.317 5.25708 177.278 5.36726 177.215 5.47744C177.136 5.63484 177.01 5.72928 176.837 5.76076C176.679 5.79223 176.513 5.86306 176.34 5.97324C176.182 6.08342 176.041 6.28804 175.915 6.58709C175.788 6.87041 175.725 7.35047 175.725 8.02728C175.725 8.32634 175.741 8.61752 175.773 8.90084C175.804 9.18416 175.82 9.46747 175.82 9.75079C175.82 10.3174 175.773 10.8841 175.678 11.4507C175.584 12.0016 175.536 12.5682 175.536 13.1506C175.536 13.4969 175.481 13.8274 175.371 14.1422C175.276 14.457 175.229 14.7875 175.229 15.1338C175.229 15.6217 175.434 15.9601 175.844 16.149C175.733 16.1962 175.647 16.3221 175.584 16.5268C175.52 16.7156 175.465 16.936 175.418 17.1878C175.386 17.4239 175.363 17.66 175.347 17.8961C175.347 18.1165 175.347 18.2739 175.347 18.3683C175.347 18.4313 175.347 18.5178 175.347 18.628C175.347 18.7382 175.355 18.8562 175.371 18.9822C175.386 19.0923 175.402 19.2025 175.418 19.3127C175.434 19.4071 175.465 19.478 175.513 19.5252C175.639 19.6511 175.702 19.8085 175.702 19.9974C175.702 20.1863 175.67 20.3751 175.607 20.564C175.544 20.7371 175.513 20.9182 175.513 21.107C175.513 21.8783 175.56 22.6495 175.654 23.4208C175.765 24.1763 175.82 24.9397 175.82 25.7109C175.82 26.2146 175.765 26.7183 175.654 27.2219C175.56 27.7256 175.513 28.2293 175.513 28.7329C175.513 29.1894 175.591 29.5514 175.749 29.819C175.907 30.0866 176.119 30.2912 176.387 30.4328C176.655 30.5745 176.963 30.6689 177.309 30.7162C177.656 30.7634 178.019 30.787 178.397 30.787C178.996 30.787 179.587 30.7398 180.17 30.6453C180.769 30.5352 181.36 30.4801 181.943 30.4801C182.527 30.4801 182.976 30.6611 183.291 31.0231C183.622 31.3851 183.788 31.8494 183.788 32.4161C183.788 32.841 183.717 33.2424 183.575 33.6201C183.449 33.9822 183.26 34.297 183.007 34.5645C182.771 34.8478 182.479 35.0682 182.133 35.2256C181.786 35.383 181.392 35.4617 180.95 35.4617C180.635 35.4617 180.281 35.4223 179.886 35.3437C179.256 35.2177 178.626 35.1233 177.995 35.0603C177.365 35.0131 176.718 34.9895 176.056 34.9895C175.505 34.9895 174.953 34.9974 174.401 35.0131C173.85 35.0446 173.298 35.0603 172.746 35.0603C172.084 35.0603 171.43 35.0525 170.784 35.0367C170.138 35.021 169.484 35.0131 168.822 35.0131C168.585 35.0131 168.357 34.9738 168.136 34.8951C167.915 34.8164 167.695 34.777 167.474 34.777C167.316 34.777 167.135 34.8006 166.93 34.8478C166.725 34.9108 166.505 34.9738 166.268 35.0367C166.048 35.0997 165.811 35.1548 165.559 35.202C165.307 35.265 165.055 35.2964 164.802 35.2964C164.219 35.2964 163.715 35.1626 163.289 34.8951C162.864 34.6432 162.651 34.1946 162.651 33.5493C162.651 33.3447 162.675 33.148 162.722 32.9591C162.738 32.8174 162.809 32.6207 162.935 32.3688C163.077 32.117 163.234 31.873 163.408 31.6369C163.597 31.3851 163.786 31.1726 163.975 30.9995C164.18 30.8263 164.361 30.7398 164.519 30.7398C164.645 30.7398 164.763 30.7712 164.873 30.8342C164.999 30.8972 165.133 30.9759 165.275 31.0703C165.433 31.149 165.614 31.2198 165.819 31.2828C166.024 31.3457 166.268 31.3772 166.552 31.3772C167.119 31.3772 167.711 31.3221 168.325 31.212C168.94 31.1018 169.499 30.9129 170.004 30.6453C170.524 30.362 170.95 30 171.281 29.5593C171.612 29.1028 171.777 28.5362 171.777 27.8594C171.777 27.6076 171.761 27.3636 171.73 27.1275C171.698 26.8757 171.667 26.6238 171.635 26.372C171.541 25.5535 171.485 24.7272 171.47 23.893C171.454 23.0588 171.446 22.2246 171.446 21.3903C171.446 20.8395 171.517 20.3122 171.659 19.8085C171.801 19.2891 171.872 18.7539 171.872 18.203C171.872 17.8882 171.816 17.5892 171.706 17.3059C171.596 17.0226 171.541 16.7314 171.541 16.4323C171.541 16.2907 171.556 16.149 171.588 16.0073C171.635 15.8657 171.659 15.7162 171.659 15.5588C171.659 15.2125 171.619 14.882 171.541 14.5672C171.478 14.2366 171.446 13.9061 171.446 13.5756C171.446 13.0247 171.501 12.4738 171.612 11.9229C171.738 11.372 171.801 10.8211 171.801 10.2702C171.801 9.93966 171.761 9.60913 171.682 9.27859C171.604 8.94806 171.517 8.62539 171.422 8.3106C171.344 7.9958 171.265 7.67314 171.186 7.3426C171.107 7.01207 171.068 6.68153 171.068 6.351C171.068 6.14638 171.091 5.93389 171.139 5.71354C171.044 5.49318 170.91 5.32004 170.737 5.19412C170.563 5.06821 170.374 4.95016 170.169 4.83998C169.964 4.7298 169.76 4.61962 169.555 4.50944C169.365 4.39927 169.216 4.24187 169.105 4.03725C168.979 4.05299 168.901 4.11595 168.869 4.22613C168.837 4.32057 168.814 4.43075 168.798 4.55666C168.782 4.66684 168.751 4.77702 168.703 4.8872C168.672 4.98164 168.585 5.03673 168.443 5.05247C168.002 5.09969 167.553 5.13903 167.096 5.17051C166.654 5.20199 166.213 5.21773 165.772 5.21773C165.52 5.21773 165.204 5.20199 164.826 5.17051C164.464 5.13903 164.109 5.06821 163.762 4.95803C163.431 4.84785 163.147 4.69045 162.911 4.48583C162.675 4.28122 162.556 3.9979 162.556 3.63589C162.556 3.41553 162.604 3.1873 162.698 2.95121C162.809 2.69937 162.935 2.4554 163.077 2.21931C163.234 1.98321 163.4 1.76285 163.573 1.55824C163.762 1.33788 163.928 1.149 164.07 0.991605C164.18 0.881427 164.345 0.786988 164.566 0.70829C164.787 0.629591 165.031 0.574502 165.299 0.543022C165.583 0.511542 165.882 0.487933 166.197 0.472193C166.513 0.456453 166.828 0.448583 167.143 0.448583C167.537 0.448583 167.9 0.456453 168.231 0.472193C168.577 0.472193 168.861 0.472193 169.082 0.472193C169.476 0.472193 169.957 0.464323 170.524 0.448583C171.107 0.417104 171.659 0.377754 172.179 0.330535C172.715 0.283316 173.172 0.236097 173.55 0.188877C173.944 0.125918 174.149 0.0629591 174.165 0C174.26 0.0472193 174.37 0.125918 174.496 0.236097C174.638 0.330535 174.78 0.424974 174.922 0.519412C175.079 0.613851 175.229 0.70042 175.371 0.779119C175.513 0.857817 175.623 0.897167 175.702 0.897167C175.796 0.897167 175.867 0.865687 175.915 0.802728C175.978 0.724029 176.025 0.637461 176.056 0.543022C176.104 0.448583 176.135 0.354145 176.151 0.259706C176.167 0.149528 176.175 0.0629591 176.175 0H176.34C176.687 0 176.915 0.102308 177.026 0.306925C177.152 0.511542 177.215 0.755509 177.215 1.03882C177.215 1.10178 177.207 1.15687 177.191 1.20409C177.191 1.25131 177.191 1.29853 177.191 1.34575C177.349 1.31427 177.459 1.24344 177.522 1.13326C177.601 1.00735 177.664 0.881427 177.711 0.755509C177.759 0.629591 177.814 0.519412 177.877 0.424974C177.956 0.330535 178.082 0.283316 178.255 0.283316C178.318 0.283316 178.413 0.299056 178.539 0.330535H178.704C179.051 0.613851 179.319 0.834208 179.508 0.991605C179.713 1.149 179.871 1.26705 179.981 1.34575C180.091 1.40871 180.162 1.44806 180.194 1.4638C180.225 1.47954 180.249 1.48741 180.265 1.48741C180.296 1.48741 180.351 1.49528 180.43 1.51102C180.525 1.52676 180.572 1.52676 180.572 1.51102C180.572 1.44806 180.533 1.39297 180.454 1.34575C180.391 1.28279 180.312 1.21983 180.217 1.15687C180.139 1.09391 180.06 1.02308 179.981 0.944386C179.918 0.865687 179.886 0.779119 179.886 0.68468C180.076 0.68468 180.225 0.66107 180.336 0.613851C180.446 0.550892 180.541 0.487933 180.619 0.424974C180.698 0.346275 180.777 0.275446 180.856 0.212487C180.95 0.149528 181.069 0.118048 181.21 0.118048C181.415 0.118048 181.573 0.149528 181.683 0.212487C181.794 0.275446 181.888 0.346275 181.967 0.424974C182.046 0.487933 182.117 0.550892 182.18 0.613851C182.243 0.67681 182.33 0.70829 182.44 0.70829C182.519 0.70829 182.582 0.70042 182.629 0.68468C182.692 0.66894 182.763 0.66107 182.842 0.66107C182.952 0.66107 183.023 0.70829 183.055 0.802728C183.086 0.897167 183.11 0.983736 183.126 1.06243C183.173 1.29853 183.212 1.47954 183.244 1.60546C183.275 1.73137 183.315 1.84155 183.362 1.93599C183.409 2.03043 183.464 2.13274 183.527 2.24292C183.606 2.33736 183.709 2.47901 183.835 2.66789C183.929 2.79381 183.977 2.9276 183.977 3.06925ZM172.132 4.62749C172.226 4.50157 172.203 4.35992 172.061 4.20252C171.919 4.04512 171.761 3.96642 171.588 3.96642C171.399 3.96642 171.273 4.06086 171.21 4.24974C171.162 4.42287 171.139 4.58027 171.139 4.72193C171.17 4.83211 171.218 4.91868 171.281 4.98164C171.328 5.0446 171.383 5.09969 171.446 5.1469C171.509 5.19412 171.58 5.21773 171.659 5.21773C171.785 5.21773 171.879 5.19412 171.943 5.1469C172.006 5.08395 172.053 5.01312 172.084 4.93442C172.116 4.85572 172.132 4.75341 172.132 4.62749Z" fill="white"/>
</svg>
