<svg xmlns="http://www.w3.org/2000/svg" width="500" height="500" version="1.0" viewBox="0 0 375 375"><defs><clipPath id="a"><path d="M271 271h94v94h-94Zm0 0"/></clipPath><clipPath id="b"><path d="m261.164 295.45 34.285-34.29 79.555 79.559-34.285 34.285Zm0 0"/></clipPath><clipPath id="c"><path d="M278.305 278.305a24.25 24.25 0 0 1 34.289 0l45.261 45.261a24.25 24.25 0 0 1 0 34.29 24.26 24.26 0 0 1-17.144 7.097 24.25 24.25 0 0 1-17.14-7.098l-45.266-45.265a24.24 24.24 0 0 1 0-34.285m0 0"/></clipPath><clipPath id="d"><path d="M33 29.813h309V329H33Zm0 0"/></clipPath><clipPath id="e"><path d="M29.559 29.277H346v316.5H29.559Zm0 0"/></clipPath><clipPath id="f"><path d="M295 295h52v52h-52Zm0 0"/></clipPath><clipPath id="g"><path d="m295.398 331.48 35.836-35.835 14.774 14.773-35.836 35.836Zm0 0"/></clipPath></defs><g clip-path="url(#a)"><g clip-path="url(#b)"><g clip-path="url(#c)"><path d="m261.164 295.45 34.285-34.29 79.555 79.559-34.285 34.285Zm0 0"/></g></g></g><g clip-path="url(#d)"><path d="M186.535 29.797a20.4 20.4 0 0 0-7.926 2.101L71.258 83.102A20.35 20.35 0 0 0 60.18 96.898L33.902 211.82c-1.25 5.395-.242 11.047 2.891 15.672q.549.839 1.156 1.617l74.168 92.22a20.51 20.51 0 0 0 16.008 7.554h118.96c6.224.008 12.118-2.89 16.028-7.64l74.13-92.24c3.89-4.815 5.347-11.171 3.855-17.202L314.645 96.78a20.37 20.37 0 0 0-11.075-13.793L196.39 31.906a20.3 20.3 0 0 0-9.949-2.11Zm0 0"/></g><path fill="#fff" stroke="#fff" stroke-width=".5297765000000001" d="M187.52 68.965a6.783 6.783 0 0 0-6.31 7.125v1.812c.173 2.051.481 4.082.888 6.098.59 3.863.8 7.75.632 11.652a7 7 0 0 1-2.097 3.325l-.145 2.718a83.5 83.5 0 0 0-11.59 1.79 82.5 82.5 0 0 0-41.937 23.937l-2.313-1.637a5 5 0 0 1-3.804-.387 59.8 59.8 0 0 1-8.64-7.8 54 54 0 0 0-4.208-4.48l-1.426-1.138a7.7 7.7 0 0 0-4.46-1.683 6.1 6.1 0 0 0-2.833.52 6.1 6.1 0 0 0-2.28 1.753c-2.18 3.051-1.466 7.282 1.577 9.47l1.328 1.058a54 54 0 0 0 5.317 3.109c3.41 1.898 6.629 4.125 9.613 6.742a6.98 6.98 0 0 1 1.281 3.7l2.102 1.925a83.04 83.04 0 0 0-13.082 57.852l-2.695.773a8.8 8.8 0 0 1-2.754 2.774 59.7 59.7 0 0 1-11.504 1.898q-3.094.06-6.164.48l-1.703.387h-.196a6.5 6.5 0 0 0-1.707.48q-.82.364-1.512.93a6.47 6.47 0 0 0-1.562 8.063 6.3 6.3 0 0 0 1.055 1.43q.633.638 1.414 1.078a6.424 6.424 0 0 0 3.426.824 6.5 6.5 0 0 0 1.75-.313h.124l1.735-.195a51 51 0 0 0 5.758-2.097 60 60 0 0 1 11.195-3.274 7 7 0 0 1 3.68 1.297l2.886-.48a83.45 83.45 0 0 0 36.989 46.265l-1.176 2.453a6.44 6.44 0 0 1 .578 3.625 62 62 0 0 1-5.809 10.516 55 55 0 0 0-3.445 5.137l-.82 1.734a6.3 6.3 0 0 0-.664 1.637 6.3 6.3 0 0 0-.196 1.754c.016.597.11 1.175.29 1.746.175.566.425 1.101.75 1.597a6.4 6.4 0 0 0 2.632 2.313 6.5 6.5 0 0 0 1.684.535 6.4 6.4 0 0 0 1.765.059 6.5 6.5 0 0 0 1.72-.438 6.46 6.46 0 0 0 2.765-2.164q.528-.72.84-1.559l.8-1.64a53 53 0 0 0 1.852-5.875c1.703-4.207 2.629-8.727 4.961-11.52a5.05 5.05 0 0 1 2.754-1.347l1.445-2.63a83 83 0 0 0 14.54 4.114 82.8 82.8 0 0 0 15.046 1.414 82.8 82.8 0 0 0 15.05-1.34 83.3 83.3 0 0 0 14.563-4.043l1.282 2.453a5.03 5.03 0 0 1 3.273 1.977 60.5 60.5 0 0 1 4.395 10.789 54 54 0 0 0 1.867 5.883l.8 1.64c.212.555.493 1.075.844 1.551.356.48.766.903 1.239 1.266q.703.55 1.53.883.83.339 1.716.433a6.4 6.4 0 0 0 3.457-.574 6.4 6.4 0 0 0 2.648-2.297 6.5 6.5 0 0 0 1.031-3.355 6.435 6.435 0 0 0-.879-3.398l-.835-1.735a54 54 0 0 0-3.45-5.113c-2.214-3.2-4.125-6.61-5.78-10.184a5 5 0 0 1-.063-1.992 4.9 4.9 0 0 1 .718-1.86c-.41-.84-.77-1.703-1.07-2.59a83.56 83.56 0 0 0 36.824-46.43l2.739.485a5.1 5.1 0 0 1 3.59-1.332c3.824.735 7.574 1.926 11.195 3.278a49 49 0 0 0 5.758 2.214c.464.125 1.136.23 1.656.356h.129a6.45 6.45 0 0 0 3.511.129 6.4 6.4 0 0 0 1.653-.656q.78-.44 1.406-1.079a6.46 6.46 0 0 0 1.7-3.078 6.4 6.4 0 0 0 .155-1.77 6.3 6.3 0 0 0-1.132-3.327 6.5 6.5 0 0 0-1.203-1.309 6.4 6.4 0 0 0-1.52-.926 6.3 6.3 0 0 0-1.71-.476l-1.868-.446a54 54 0 0 0-6.168-.48 58.7 58.7 0 0 1-11.5-1.899 7.25 7.25 0 0 1-2.773-2.773l-2.602-.77q1.032-7.521.687-15.109a83 83 0 0 0-2.058-14.98 83 83 0 0 0-4.73-14.364 83 83 0 0 0-7.25-13.273l2.273-2.102a5.1 5.1 0 0 1 1.195-3.64 60.6 60.6 0 0 1 9.535-6.703 54 54 0 0 0 5.32-3.11l1.407-1.136c.515-.325.98-.711 1.387-1.165q.614-.674 1.011-1.5a6.4 6.4 0 0 0 .555-1.722 6.2 6.2 0 0 0 .055-1.809 6.3 6.3 0 0 0-.45-1.754 6.4 6.4 0 0 0-.918-1.558 6.3 6.3 0 0 0-1.316-1.242 6.437 6.437 0 0 0-6.871-.371 6.4 6.4 0 0 0-1.441 1.093l-1.426 1.137a53 53 0 0 0-4.207 4.476 60 60 0 0 1-8.41 7.93 7 7 0 0 1-3.891.422l-2.438 1.734a84.16 84.16 0 0 0-53.316-25.718c0-.965-.125-2.407-.144-2.86a5.07 5.07 0 0 1-2.098-3.199q-.2-5.847.73-11.625c.414-2.023.703-4.047.887-6.098v-1.925a6.784 6.784 0 0 0-6.309-7.13Zm-8.036 49.758-1.925 33.648h-.145c-.098 2.078-1.32 3.852-3.2 4.852-1.874 1.004-4.1.703-5.777-.52l-27.597-19.555a65.9 65.9 0 0 1 14.7-10.886 66 66 0 0 1 17.116-6.442 68 68 0 0 1 6.809-1.097Zm16.067 0a66.7 66.7 0 0 1 38.433 18.535l-27.336 19.426a5.66 5.66 0 0 1-5.953.695 5.67 5.67 0 0 1-3.234-5.047Zm-64.727 31.086 25.235 22.52v.144a5.67 5.67 0 0 1 1.793 5.527 5.67 5.67 0 0 1-4.016 4.191v.098l-32.387 9.313a66.3 66.3 0 0 1 1.211-21.684 66.155 66.155 0 0 1 8.172-20.121Zm113.207 0a67.24 67.24 0 0 1 9.653 41.675l-32.434-9.34v-.128a5.6 5.6 0 0 1-4.016-4.188 5.71 5.71 0 0 1 1.793-5.531l25.043-22.414Zm-61.683 24.273h10.324l6.308 8.012-2.293 10.02-9.273 4.456-9.297-4.457-2.187-10.02Zm33.074 27.336c.433-.05.965-.05 1.3 0l33.4 5.633c-4.817 13.87-14.325 25.719-26.731 33.648l-12.91-31.25a5.8 5.8 0 0 1-.376-1.3q-.107-.676-.054-1.356a5.68 5.68 0 0 1 5.336-5.23Zm-56.086.145c1.887.027 3.629 1 4.66 2.582a5.63 5.63 0 0 1 .453 5.296v.125l-12.828 30.996a66.3 66.3 0 0 1-26.566-33.296l33.105-5.618q.552-.058 1.117 0Zm27.973 13.484a5.7 5.7 0 0 1 1.554.168 5.675 5.675 0 0 1 3.617 2.797h.125l16.317 29.449-6.52 1.926a66.4 66.4 0 0 1-36.199-1.871l16.375-29.446c.992-1.734 2.82-2.793 4.817-2.84Zm0 0"/><g clip-path="url(#e)"><path fill="#9ebdff" d="M187.781 29.277c-87.418 0-158.222 70.805-158.222 158.22 0 87.417 70.804 158.222 158.222 158.222 87.414 0 158.219-70.805 158.219-158.223 0-87.414-70.805-158.219-158.219-158.219m0 284.797c-69.933 0-126.578-56.644-126.578-126.578S117.848 60.922 187.781 60.922c69.934 0 126.574 56.64 126.574 126.574s-56.64 126.578-126.574 126.578m0 0"/></g><g clip-path="url(#f)"><g clip-path="url(#g)"><path fill="#fff" d="m295.398 331.48 35.836-35.835 14.774 14.773-35.836 35.836Zm0 0"/></g></g></svg>